<?xml version="1.0" encoding="utf-8"?>
<!-- Generator: Adobe Illustrator 17.0.0, SVG Export Plug-In . SVG Version: 6.00 Build 0)  -->
<!DOCTYPE svg PUBLIC "-//W3C//DTD SVG 1.1//EN" "http://www.w3.org/Graphics/SVG/1.1/DTD/svg11.dtd">
<svg version="1.1" id="Layer_1" xmlns="http://www.w3.org/2000/svg" xmlns:xlink="http://www.w3.org/1999/xlink" x="0px" y="0px"
	 width="344px" height="25px" viewBox="0 0 344 25" enable-background="new 0 0 344 25" xml:space="preserve">
<g id="XMLID_683_">
	<g id="XMLID_685_">
		<g id="XMLID_689_">
			<path id="XMLID_703_" fill="#3C4693" d="M12.682,15.516h2.093c0,0,0.709,0.068,1.107-0.52c0.398-0.587,0.676-1.176,0.832-1.506
				c0.155-0.328,2.128-4.395,6.485-7.526c0,0-3.225,0.541-6.088,3.148C13.615,12.297,14.741,13.958,12.682,15.516z"/>
			<path id="XMLID_702_" fill="#3C4693" d="M12.307,15.516h-2.093c0,0-0.707,0.068-1.107-0.52c-0.396-0.587-0.674-1.176-0.83-1.506
				c-0.155-0.328-2.126-4.395-6.484-7.526c0,0,3.226,0.541,6.087,3.148C11.372,12.297,10.249,13.958,12.307,15.516z"/>
			<path id="XMLID_701_" fill="#3C4693" d="M12.441,14.858c0,0-1.419-1.522-1.419-4.949c0-3.424,0.83-5.258,1.419-6.036
				c0,0,1.35,1.712,1.35,5.985C13.791,13.458,12.441,14.858,12.441,14.858z"/>
			<path id="XMLID_690_" fill="#3C4693" d="M14.702,18.609c0-0.071,0.294-0.234,0.294-0.234c-0.155-1.038-0.605-1.376-0.605-1.376
				c-0.158,0.078-0.296,0.026-0.296,0.026c-0.052-0.069,0.042-0.285,0.042-0.285c-0.622-0.607-1.399-0.666-1.399-0.666
				c-0.035,0.059-0.183,0.294-0.252,0.294c-0.068,0-0.233-0.294-0.233-0.294c-1.039,0.155-1.375,0.604-1.375,0.604
				c0.078,0.156,0.053,0.347,0.053,0.347c-0.071,0.052-0.345-0.069-0.345-0.069c-0.607,0.622-0.631,1.383-0.631,1.383
				c0.061,0.035,0.293,0.181,0.293,0.251c0,0.068-0.293,0.234-0.293,0.234c0.153,1.038,0.605,1.375,0.605,1.375
				c0.143-0.082,0.347-0.052,0.347-0.052l-0.018-0.001c0.053,0.068-0.071,0.312-0.071,0.312c0.622,0.606,1.401,0.666,1.401,0.666
				c0.034-0.06,0.182-0.293,0.249-0.293c0.072,0,0.236,0.293,0.236,0.293c1.039-0.157,1.374-0.605,1.374-0.605
				c-0.061-0.127-0.057-0.272-0.055-0.326c0.071-0.051,0.308,0.065,0.308,0.065c0.607-0.623,0.667-1.401,0.667-1.401
				C14.936,18.826,14.702,18.677,14.702,18.609z M13.167,17.691c0.357-0.36,0.701-0.593,0.769-0.526
				c0.065,0.065-0.171,0.411-0.527,0.767c-0.357,0.357-0.701,0.591-0.767,0.526C12.573,18.392,12.81,18.049,13.167,17.691z
				 M12.48,16.552c0.093,0,0.173,0.408,0.173,0.915c0,0.505-0.08,0.916-0.173,0.916c-0.098,0-0.17-0.411-0.17-0.916
				C12.31,16.96,12.382,16.552,12.48,16.552z M11.038,17.15c0.066-0.068,0.411,0.169,0.767,0.526
				c0.357,0.357,0.593,0.703,0.526,0.769c-0.065,0.065-0.41-0.17-0.766-0.529C11.207,17.561,10.971,17.216,11.038,17.15z
				 M10.438,18.6c0-0.096,0.408-0.173,0.914-0.173c0.505,0,0.914,0.077,0.914,0.173c0,0.091-0.41,0.169-0.914,0.169
				C10.846,18.769,10.438,18.691,10.438,18.6z M11.807,19.512c-0.357,0.357-0.703,0.593-0.769,0.526
				c-0.068-0.069,0.168-0.411,0.527-0.768c0.356-0.357,0.701-0.594,0.766-0.526C12.399,18.81,12.163,19.155,11.807,19.512z
				 M12.471,20.647c-0.093,0-0.17-0.408-0.17-0.912c0-0.508,0.077-0.917,0.17-0.917c0.095,0,0.171,0.408,0.171,0.917
				C12.642,20.238,12.565,20.647,12.471,20.647z M13.936,20.039c-0.067,0.067-0.411-0.17-0.769-0.526
				c-0.357-0.357-0.595-0.702-0.525-0.768c0.066-0.068,0.41,0.17,0.767,0.526C13.765,19.627,14.001,19.97,13.936,20.039z
				 M14.022,20.193c0.003-0.011,0.003-0.018,0.003-0.018L14.022,20.193z M13.609,18.769c-0.505,0-0.914-0.078-0.914-0.169
				c0-0.096,0.41-0.173,0.914-0.173c0.503,0,0.913,0.077,0.913,0.173C14.522,18.691,14.112,18.769,13.609,18.769z"/>
		</g>
		<path id="XMLID_686_" fill="#3C4693" d="M22.114,25H2.877C1.291,25,0,23.709,0,22.121V2.878C0,1.292,1.291,0,2.877,0h19.238
			c1.587,0,2.877,1.292,2.877,2.878v19.243C24.991,23.709,23.701,25,22.114,25z M2.877,1.441c-0.793,0-1.437,0.643-1.437,1.438
			v19.243c0,0.794,0.644,1.441,1.437,1.441h19.238c0.793,0,1.438-0.648,1.438-1.441V2.878c0-0.794-0.646-1.438-1.438-1.438H2.877z"
			/>
	</g>
	<g>
		<path fill="#333374" d="M43.48,19.022V5.012h3.513l3.264,5.799c0.457,0.818,0.856,1.583,1.195,2.297
			c0.339,0.714,0.558,1.216,0.655,1.507l0.166,0.457c-0.139-1.025-0.208-2.446-0.208-4.261V5.012h3.201v14.01h-3.513l-3.346-5.799
			c-0.444-0.748-0.835-1.487-1.175-2.213c-0.34-0.728-0.571-1.265-0.696-1.611l-0.166-0.52c0.208,1.247,0.312,2.696,0.312,4.345
			v5.799H43.48z"/>
		<path fill="#333374" d="M68.611,19.022l-0.852-2.868h-4.906L62,19.022h-3.346l4.677-14.01h4.033l4.677,14.01H68.611z
			 M63.622,13.576h3.367l-0.145-0.5c-0.402-1.357-0.731-2.515-0.988-3.471C65.6,8.65,65.444,8.033,65.389,7.755l-0.083-0.416
			c-0.112,0.762-0.624,2.675-1.539,5.737L63.622,13.576z"/>
		<path fill="#333374" d="M75.429,19.022V5.012h3.513l3.264,5.799c0.457,0.818,0.856,1.583,1.195,2.297s0.558,1.216,0.655,1.507
			l0.166,0.457c-0.139-1.025-0.208-2.446-0.208-4.261V5.012h3.201v14.01h-3.513l-3.346-5.799c-0.444-0.748-0.835-1.487-1.175-2.213
			c-0.34-0.728-0.571-1.265-0.696-1.611l-0.166-0.52c0.208,1.247,0.312,2.696,0.312,4.345v5.799H75.429z"/>
		<path fill="#333374" d="M109.976,5.012l-4.844,8.855v5.155h-3.201v-5.135l-4.781-8.876h3.741l0.852,2.037
			c0.443,1.053,0.811,1.953,1.102,2.702s0.478,1.234,0.561,1.455l0.104,0.334c0.138-0.624,0.748-2.121,1.829-4.49l0.915-2.037
			H109.976z"/>
		<path fill="#333374" d="M122.241,19.022l-0.852-2.868h-4.906l-0.852,2.868h-3.346l4.677-14.01h4.033l4.677,14.01H122.241z
			 M117.252,13.576h3.367l-0.145-0.5c-0.402-1.357-0.731-2.515-0.988-3.471c-0.256-0.956-0.412-1.573-0.467-1.851l-0.083-0.416
			c-0.112,0.762-0.624,2.675-1.539,5.737L117.252,13.576z"/>
		<path fill="#333374" d="M129.058,19.022V5.012h3.513l3.264,5.799c0.457,0.818,0.856,1.583,1.195,2.297
			c0.339,0.714,0.558,1.216,0.655,1.507l0.166,0.457c-0.139-1.025-0.208-2.446-0.208-4.261V5.012h3.201v14.01h-3.513l-3.346-5.799
			c-0.444-0.748-0.835-1.487-1.175-2.213c-0.34-0.728-0.571-1.265-0.696-1.611l-0.166-0.52c0.208,1.247,0.312,2.696,0.312,4.345
			v5.799H129.058z"/>
		<path fill="#333374" d="M157.182,10.665v7.068c-1.33,0.97-3.007,1.455-5.03,1.455c-2.245,0-4.067-0.644-5.467-1.933
			s-2.099-3.042-2.099-5.259c0-2.189,0.731-3.942,2.193-5.259c1.462-1.317,3.315-1.975,5.56-1.975c1.58,0,2.944,0.292,4.095,0.874
			v3.2c-1.33-0.761-2.696-1.143-4.095-1.143c-1.317,0-2.363,0.392-3.139,1.175c-0.776,0.783-1.164,1.825-1.164,3.128
			c0,1.317,0.381,2.363,1.144,3.139c0.762,0.776,1.801,1.163,3.118,1.163c0.596,0,1.185-0.09,1.767-0.27v-2.64h-2.266v-2.723
			H157.182z"/>
		<path fill="#333374" d="M177.428,5.012v2.578h-3.409v11.433h-3.222V7.589h-3.43V5.012H177.428z"/>
		<path fill="#333374" d="M184.184,16.465h5.488v2.557h-8.71V5.012h8.627v2.557h-5.405v3.18h4.823v2.536h-4.823V16.465z"/>
		<path fill="#333374" d="M197.467,11.913l-4.22-6.902h3.72l2.328,4.095c0.277-0.512,0.672-1.237,1.185-2.172
			c0.512-0.936,0.859-1.577,1.04-1.923h3.908l-4.241,6.922l4.511,7.088h-3.804l-2.536-4.365c-0.305,0.568-0.748,1.361-1.33,2.38
			c-0.582,1.019-0.956,1.681-1.123,1.985h-3.866L197.467,11.913z"/>
		<path fill="#333374" d="M218.502,5.012v2.578h-3.409v11.433h-3.222V7.589h-3.43V5.012H218.502z"/>
		<path fill="#333374" d="M222.244,19.022V5.012h3.201v14.01H222.244z"/>
		<path fill="#333374" d="M233.115,16.216h5.175v2.806h-8.377V5.012h3.202V16.216z"/>
		<path fill="#333374" d="M244.839,16.465h5.488v2.557h-8.71V5.012h8.627v2.557h-5.405v3.18h4.823v2.536h-4.823V16.465z"/>
		<path fill="#333374" d="M273.316,10.665v7.068c-1.33,0.97-3.007,1.455-5.03,1.455c-2.245,0-4.067-0.644-5.467-1.933
			c-1.4-1.289-2.099-3.042-2.099-5.259c0-2.189,0.731-3.942,2.193-5.259c1.462-1.317,3.315-1.975,5.56-1.975
			c1.58,0,2.944,0.292,4.095,0.874v3.2c-1.33-0.761-2.696-1.143-4.095-1.143c-1.317,0-2.363,0.392-3.139,1.175
			c-0.776,0.783-1.164,1.825-1.164,3.128c0,1.317,0.381,2.363,1.144,3.139c0.762,0.776,1.801,1.163,3.118,1.163
			c0.596,0,1.185-0.09,1.767-0.27v-2.64h-2.266v-2.723H273.316z"/>
		<path fill="#333374" d="M284.686,19.022l-3.035-4.865h-0.977v4.865h-3.202V5.012h4.844c1.566,0,2.823,0.416,3.772,1.247
			c0.949,0.832,1.424,1.913,1.424,3.244c0,1.995-0.851,3.374-2.557,4.137l3.555,5.383H284.686z M280.674,7.609v3.95h1.517
			c1.386,0,2.078-0.679,2.078-2.037c0-0.596-0.18-1.063-0.54-1.403c-0.36-0.34-0.852-0.51-1.476-0.51H280.674z"/>
		<path fill="#333374" d="M291.276,11.976c0-2.148,0.619-3.884,1.86-5.207c1.241-1.323,2.892-1.985,4.957-1.985
			c2.079,0,3.734,0.658,4.969,1.975c1.233,1.317,1.851,3.056,1.851,5.217c0,2.148-0.622,3.884-1.861,5.207
			c-1.241,1.323-2.893,1.985-4.958,1.985c-2.078,0-3.734-0.658-4.967-1.975S291.276,14.137,291.276,11.976z M295.62,8.848
			c-0.609,0.769-0.913,1.811-0.913,3.128s0.304,2.359,0.913,3.128c0.61,0.769,1.435,1.154,2.474,1.154
			c1.04,0,1.865-0.386,2.474-1.154c0.61-0.769,0.916-1.811,0.916-3.128s-0.306-2.359-0.916-3.128
			c-0.609-0.77-1.433-1.154-2.474-1.154C297.054,7.693,296.23,8.078,295.62,8.848z"/>
		<path fill="#333374" d="M316.74,13.617V5.012h3.202v8.585c0,1.829-0.514,3.226-1.54,4.189c-1.025,0.963-2.41,1.445-4.156,1.445
			c-1.72,0-3.098-0.478-4.138-1.435c-1.039-0.956-1.559-2.307-1.559-4.053V5.012h3.202v8.709c0,1.733,0.831,2.599,2.495,2.599
			C315.908,16.32,316.74,15.42,316.74,13.617z"/>
		<path fill="#333374" d="M324.097,5.012h4.823c1.553,0,2.811,0.436,3.772,1.309c0.964,0.874,1.446,1.983,1.446,3.326
			c0,1.539-0.502,2.731-1.507,3.576c-1.005,0.845-2.243,1.268-3.712,1.268h-1.621v4.531h-3.202V5.012z M327.299,11.954h1.06
			c1.691,0,2.536-0.769,2.536-2.307c0-1.385-0.783-2.078-2.348-2.078h-1.248V11.954z"/>
	</g>
</g>
</svg>
